<?xml version="1.0" encoding="UTF-8" standalone="no"?>
<!DOCTYPE svg PUBLIC "-//W3C//DTD SVG 1.1//EN" "http://www.w3.org/Graphics/SVG/1.1/DTD/svg11.dtd">
<svg width="100%" height="100%" viewBox="0 0 479 480" version="1.1" xmlns="http://www.w3.org/2000/svg" xmlns:xlink="http://www.w3.org/1999/xlink" xml:space="preserve" xmlns:serif="http://www.serif.com/" style="fill-rule:evenodd;clip-rule:evenodd;stroke-linecap:round;stroke-linejoin:round;stroke-miterlimit:1.5;">
    <g id="Artboard1" transform="matrix(0.846834,0,0,0.84866,-196.638,-150.827)">
        <rect x="232.204" y="177.723" width="565.091" height="565.091" style="fill:none;"/>
        <g transform="matrix(1.09551,0,0,1.09316,-48.7732,-29.0409)">
            <circle cx="514.391" cy="447.147" r="236.558" style="fill:none;stroke:rgb(60,130,246);stroke-width:37.37px;"/>
        </g>
        <g transform="matrix(0.925734,0,0,0.923742,38.56,46.7122)">
            <path d="M514.391,210.589C644.951,210.589 750.949,316.587 750.949,447.147C750.949,577.707 644.951,683.705 514.391,683.705C383.831,683.705 277.833,577.707 277.833,447.147C277.833,316.587 383.831,210.589 514.391,210.589ZM403.889,398.702L460.945,398.702L460.945,376.364L383.273,376.364L383.273,450.908L403.889,454.677L431.324,460.678L431.324,437.643L403.889,432.889L403.889,398.702ZM357.285,472.279L357.285,497.088L432.498,509.652L432.498,484.844L357.285,472.279ZM515.528,542.102L358.732,520.066L358.732,544.452L515.528,566.488L672.323,544.452L672.323,520.066L515.528,542.102ZM515.528,594.161L358.732,572.125L358.732,596.511L515.528,618.547L672.323,596.511L672.323,572.125L515.528,594.161ZM514.391,240.857C500.38,240.857 489.004,252.233 489.004,266.244C489.004,280.256 500.38,291.631 514.391,291.631C528.402,291.631 539.778,280.256 539.778,266.244C539.778,252.233 528.402,240.857 514.391,240.857ZM515.805,458.106L465.696,480.584L465.696,504.826L515.805,482.348L565.915,504.826L565.915,480.584L515.805,458.106ZM515.805,324.34L465.696,346.818L465.696,371.06L515.805,348.582L565.915,371.06L565.915,346.818L515.805,324.34ZM515.805,400.16L465.696,422.638L465.696,446.88L515.805,424.402L565.915,446.88L565.915,422.638L515.805,400.16ZM644.807,450.908L644.807,376.364L567.135,376.364L567.135,398.702L624.191,398.702L624.191,432.889L596.756,437.643L596.756,460.678L624.191,454.677L644.807,450.908ZM671.559,472.279L596.347,484.844L596.347,509.652L671.559,497.088L671.559,472.279Z" style="fill:rgb(60,130,246);"/>
        </g>
    </g>
</svg>
